<svg width="32" height="32" viewBox="0 0 32 32" fill="none" xmlns="http://www.w3.org/2000/svg">
  <!-- Background circle with gradient -->
  <defs>
    <linearGradient id="bgGradient" x1="0%" y1="0%" x2="100%" y2="100%">
      <stop offset="0%" style="stop-color:#667eea;stop-opacity:1" />
      <stop offset="100%" style="stop-color:#764ba2;stop-opacity:1" />
    </linearGradient>
    <linearGradient id="textGradient" x1="0%" y1="0%" x2="100%" y2="100%">
      <stop offset="0%" style="stop-color:#ffffff;stop-opacity:1" />
      <stop offset="100%" style="stop-color:#f0f0f0;stop-opacity:1" />
    </linearGradient>
  </defs>
  
  <!-- Main background circle -->
  <circle cx="16" cy="16" r="15" fill="url(#bgGradient)" stroke="#ffffff" stroke-width="1"/>
  
  <!-- Mobile device outline -->
  <rect x="8" y="6" width="16" height="20" rx="2" fill="none" stroke="url(#textGradient)" stroke-width="1.5" opacity="0.8"/>
  
  <!-- Screen area -->
  <rect x="9.5" y="7.5" width="13" height="17" rx="1" fill="none" stroke="url(#textGradient)" stroke-width="0.5" opacity="0.6"/>
  
  <!-- Stylized "P" for Pravesh -->
  <path d="M12 10 L12 18 L16 18 Q18 18 18 16 Q18 14 16 14 L14 14 M14 14 L14 10" 
        stroke="url(#textGradient)" 
        stroke-width="2" 
        stroke-linecap="round" 
        stroke-linejoin="round" 
        fill="none"/>
  
  <!-- App icon dots representing mobile apps -->
  <circle cx="14" cy="20" r="1" fill="url(#textGradient)" opacity="0.8"/>
  <circle cx="18" cy="20" r="1" fill="url(#textGradient)" opacity="0.6"/>
  <circle cx="22" cy="20" r="1" fill="url(#textGradient)" opacity="0.4"/>
  
  <!-- React Native symbol (simplified) -->
  <circle cx="24" cy="8" r="2" fill="none" stroke="url(#textGradient)" stroke-width="1" opacity="0.7"/>
  <circle cx="26" cy="10" r="1.5" fill="none" stroke="url(#textGradient)" stroke-width="1" opacity="0.5"/>
  <circle cx="24" cy="12" r="1.5" fill="none" stroke="url(#textGradient)" stroke-width="1" opacity="0.5"/>
</svg>
